<svg xmlns="http://www.w3.org/2000/svg" viewBox="0 0 32 32" fill="#ffffff"><path d="M8 0C6.34315 0 5 1.34315 5 3v26c0 1.6569 1.34315 3 3 3h16c1.6569 0 3-1.3431 3-3V9l-9-9H8zm10 1.5V7c0 1.1046.8954 2 2 2h5.5L18 1.5zM10.5 17h2.25c1.7949 0 3.25-1.4551 3.25-3.25S14.5449 10.5 12.75 10.5H9.5v10h1v-3.5zm2.25-1H10.5v-4.5h2.25c1.2426 0 2.25 1.0074 2.25 2.25S13.9926 16 12.75 16zM17 10.5h2.75c2.0711 0 3.75 1.6789 3.75 3.75S21.8211 18 19.75 18H18v2.5h-1v-10zm2.75 6.5c1.5188 0 2.75-1.2312 2.75-2.75S21.2688 11.5 19.75 11.5H18V17h1.75z"/></svg>